Input #0, flv, from 'rtmp://0.0.0.0:1935/live/qo100_h265_1000kbps_20260511_183749':
  Metadata:
    encoder         : Lavf60.16.100
  Duration: N/A, start: 0.000000, bitrate: N/A
  Stream #0:0: Video: hevc (Main), yuvj420p(pc, bt470bg/bt470bg/bt709), 640x480, 15 fps, 15 tbr, 1k tbn
Output #0, matroska, to 'test-results/matrix_20260511_183749_15s/h265_1000kbps.mkv':
  Metadata:
    encoder         : Lavf60.16.100
  Stream #0:0: Video: hevc (Main), yuvj420p(pc, bt470bg/bt470bg/bt709), 640x480, q=2-31, 15 fps, 15 tbr, 1k tbn
Stream mapping:
  Stream #0:0 -> #0:0 (copy)
Press [q] to stop, [?] for help
size=       0kB time=00:00:00.00 bitrate=N/A speed=N/A    size=     512kB time=00:00:03.42 bitrate=1223.5kbits/s speed=6.77x    size=     768kB time=00:00:03.96 bitrate=1587.9kbits/s speed=3.91x    size=     768kB time=00:00:04.49 bitrate=1399.7kbits/s speed=2.91x    size=    1024kB time=00:00:04.99 bitrate=1679.4kbits/s speed=2.43x    size=    1024kB time=00:00:05.49 bitrate=1526.6kbits/s speed=2.14x    size=    1024kB time=00:00:05.99 bitrate=1399.3kbits/s speed=1.95x    size=    1280kB time=00:00:06.49 bitrate=1614.2kbits/s speed=1.82x    size=    1536kB time=00:00:07.02 bitrate=1790.1kbits/s speed=1.72x    size=    1536kB time=00:00:07.52 bitrate=1671.3kbits/s speed=1.64x    size=    1792kB time=00:00:08.06 bitrate=1820.9kbits/s speed=1.58x    size=    1792kB time=00:00:08.59 bitrate=1707.8kbits/s speed=1.52x    size=    2048kB time=00:00:09.12 bitrate=1837.8kbits/s speed=1.48x    size=    2048kB time=00:00:09.62 bitrate=1742.4kbits/s speed=1.44x    size=    2304kB time=00:00:10.16 bitrate=1857.3kbits/s speed=1.41x    size=    2304kB time=00:00:10.66 bitrate=1770.2kbits/s speed=1.38x    size=    2560kB time=00:00:11.16 bitrate=1878.8kbits/s speed=1.36x    size=    2560kB time=00:00:11.69 bitrate=1793.2kbits/s speed=1.34x    size=    2816kB time=00:00:12.22 bitrate=1886.4kbits/s speed=1.32x    size=    2816kB time=00:00:12.72 bitrate=1812.3kbits/s speed= 1.3x    size=    2816kB time=00:00:13.26 bitrate=1739.5kbits/s speed=1.29x    size=    3072kB time=00:00:13.76 bitrate=1828.6kbits/s speed=1.27x    size=    3072kB time=00:00:14.26 bitrate=1764.4kbits/s speed=1.26x    size=    3328kB time=00:00:14.79 bitrate=1842.6kbits/s speed=1.25x    [in#0/flv @ 0x5dc565aaa180] Error during demuxing: Input/output error
[in#0/flv @ 0x5dc565aaa180] Error retrieving a packet from demuxer: Input/output error
[out#0/matroska @ 0x5dc565acdac0] video:3539kB audio:0kB subtitle:0kB other streams:0kB global headers:0kB muxing overhead: 0.130221%
size=    3544kB time=00:00:14.82 bitrate=1957.5kbits/s speed=1.25x    
